<svg id="Capa_1" data-name="Capa 1" xmlns="http://www.w3.org/2000/svg" viewBox="0 0 20 20"><defs><style>.cls-1{fill:#4d317a;}</style></defs><title>Comment</title><path class="cls-1" d="M0,0V20H20V0H0ZM16.5,11.62a6.78,6.78,0,0,1-2.73,2,9.73,9.73,0,0,1-3.77.72,11.45,11.45,0,0,1-1.21-.07,9.15,9.15,0,0,1-3.85,2l-0.46.11a3.46,3.46,0,0,1-.53.08,0.33,0.33,0,0,1-.21-0.07,0.45,0.45,0,0,1-.15-0.21,0.31,0.31,0,0,1,0-.19,0.42,0.42,0,0,1,.07-0.16l0.13-.16,0.28-.31L4.35,15q0.09-.1.26-0.33a3.4,3.4,0,0,0,.27-0.43q0.1-.19.23-0.49a5.32,5.32,0,0,0,.22-0.64,6.15,6.15,0,0,1-2.07-1.84A4.06,4.06,0,0,1,2.5,8.93a4,4,0,0,1,.59-2.08,5.71,5.71,0,0,1,1.6-1.71A8.15,8.15,0,0,1,7.09,4,10,10,0,0,1,10,3.57a9.73,9.73,0,0,1,3.77.72,6.78,6.78,0,0,1,2.73,2A4.11,4.11,0,0,1,16.5,11.62Z"/></svg>