<svg id="Layer_3" data-name="Layer 3" xmlns="http://www.w3.org/2000/svg" viewBox="0 0 20 20"><defs><style>.cls-1{fill:#4d317a;}</style></defs><title>Mail</title><path class="cls-1" d="M19.34,0H0.66A0.78,0.78,0,0,0,0,.86V2.58a0.29,0.29,0,0,0,.12.21L9.94,10a0.14,0.14,0,0,0,.08,0,0.14,0.14,0,0,0,.08,0L19.62,2.8l0.25-.19A0.27,0.27,0,0,0,20,2.4V0.86A0.78,0.78,0,0,0,19.34,0Z"/><path class="cls-1" d="M19.92,5.19a0.14,0.14,0,0,0-.17,0L14.36,9.28a0.22,0.22,0,0,0-.08.15,0.26,0.26,0,0,0,0,.18l5.39,7.5a0.15,0.15,0,0,0,.12.07h0.06A0.22,0.22,0,0,0,20,17V5.37A0.23,0.23,0,0,0,19.92,5.19Z"/><path class="cls-1" d="M12.81,10.65a0.14,0.14,0,0,0-.21,0l-2.16,1.64a0.68,0.68,0,0,1-.83,0l-1.9-1.4a0.14,0.14,0,0,0-.2,0L0.3,19.53a0.25,0.25,0,0,0-.05.18,0.23,0.23,0,0,0,.08.16A0.54,0.54,0,0,0,.66,20H19.14a0.17,0.17,0,0,0,.15-0.13,0.26,0.26,0,0,0,0-.23Z"/><path class="cls-1" d="M5.93,9.87A0.25,0.25,0,0,0,6,9.69,0.23,0.23,0,0,0,5.9,9.52L0.25,5.35a0.13,0.13,0,0,0-.17,0A0.23,0.23,0,0,0,0,5.54V16.48a0.22,0.22,0,0,0,.1.2l0.07,0a0.15,0.15,0,0,0,.11-0.06Z"/></svg>