<svg id="Layer_3" data-name="Layer 3" xmlns="http://www.w3.org/2000/svg" viewBox="0 0 20 20"><defs><style>.cls-1{fill:#4d317a;}</style></defs><title>Print</title><path class="cls-1" d="M20,6.28a0.45,0.45,0,0,0-.45-0.43H16.31V0.46A0.46,0.46,0,0,0,15.85,0H4.15a0.45,0.45,0,0,0-.45.46v5.4H0.45A0.45,0.45,0,0,0,0,6.28H0v9.2a0.46,0.46,0,0,0,.45.46H3.69V12.11H16.31v3.83h3.24A0.46,0.46,0,0,0,20,15.48V6.28h0ZM15.07,7.91H4.93V1.71a0.45,0.45,0,0,1,.45-0.46h9.24a0.45,0.45,0,0,1,.45.46v6.2h0Z"/><path class="cls-1" d="M5,19.54a0.45,0.45,0,0,0,.45.46h9.18A0.45,0.45,0,0,0,15,19.54V13.38H5v6.16Z"/></svg>