<svg id="Layer_3" data-name="Layer 3" xmlns="http://www.w3.org/2000/svg" viewBox="0 0 20 20"><defs><style>.cls-1{fill:#4d317a;}</style></defs><title>Recommend</title><path class="cls-1" d="M4.3,13.6a0.57,0.57,0,0,0-.43.18,0.6,0.6,0,0,0,.85.85A0.6,0.6,0,0,0,4.3,13.6Z"/><path class="cls-1" d="M0,0V20H20V0H0ZM6.4,9.4v6a0.61,0.61,0,0,1-.6.6H3.1a0.61,0.61,0,0,1-.6-0.6v-6a0.61,0.61,0,0,1,.6-0.6H5.8a0.61,0.61,0,0,1,.6.6h0Zm10.73,2.11a2,2,0,0,1-.4,1.28,1.93,1.93,0,0,1,0,1.1,1.83,1.83,0,0,1-.51.88,2.25,2.25,0,0,1-.46,1.7,2.33,2.33,0,0,1-1.85.73H12.7a7,7,0,0,1-1.35-.15q-0.73-.15-1.14-0.27l-1.13-.37A6.86,6.86,0,0,0,7.6,16a0.62,0.62,0,0,1-.42-0.18A0.56,0.56,0,0,1,7,15.4v-6A0.57,0.57,0,0,1,7.17,9a0.61,0.61,0,0,1,.4-0.19,1.55,1.55,0,0,0,.71-0.55q0.49-.53.95-1.13A13.84,13.84,0,0,1,10.18,6a1.44,1.44,0,0,0,.29-0.45,3,3,0,0,0,.16-0.45q0-.17.13-0.57t0.12-.57a2.79,2.79,0,0,1,.18-0.49A1.63,1.63,0,0,1,11.38,3,0.58,0.58,0,0,1,11.8,2.8a2.8,2.8,0,0,1,.77.1,2.05,2.05,0,0,1,.56.24,1.32,1.32,0,0,1,.38.38,2.17,2.17,0,0,1,.22.42,2.35,2.35,0,0,1,.11.47,4,4,0,0,1,0,.42q0,0.14,0,.37a2.93,2.93,0,0,1-.09.71,3.79,3.79,0,0,1-.18.56q-0.09.21-.26,0.53l-0.09.17a1.58,1.58,0,0,0-.1.21,2.36,2.36,0,0,0-.07.22h2.6a1.83,1.83,0,0,1,1.8,1.8A2.05,2.05,0,0,1,17,10.8,2.26,2.26,0,0,1,17.13,11.51Z"/></svg>